<svg width="100" height="100" viewBox="0 0 100 100" xmlns="http://www.w3.org/2000/svg">
  <!-- Dark rounded background -->
  <rect x="5" y="5" width="90" height="90" rx="18" ry="18" fill="#1a1a2e"/>

  <!-- Green leaf (left) -->
  <path d="M 30 65 Q 25 50, 35 38 Q 42 42, 45 52 Q 42 62, 30 65 Z" fill="#7defa1"/>
  <path d="M 35 38 Q 38 48, 36 58" stroke="#1a1a2e" stroke-width="1.5" fill="none"/>

  <!-- Pink/Coral leaf (center) -->
  <path d="M 45 52 Q 48 35, 58 28 Q 65 35, 62 50 Q 55 58, 45 52 Z" fill="#f8a5a5"/>
  <path d="M 58 28 Q 56 40, 52 48" stroke="#1a1a2e" stroke-width="1.5" fill="none"/>

  <!-- Purple/Lavender leaf (right) -->
  <path d="M 62 50 Q 72 38, 78 42 Q 80 55, 70 62 Q 62 58, 62 50 Z" fill="#c9b8e8"/>
  <path d="M 78 42 Q 72 50, 68 56" stroke="#1a1a2e" stroke-width="1.5" fill="none"/>
</svg>
